<?xml version="1.0" standalone="no"?>
<!DOCTYPE svg PUBLIC "-//W3C//DTD SVG 20010904//EN"
 "http://www.w3.org/TR/2001/REC-SVG-20010904/DTD/svg10.dtd">
<svg version="1.0" xmlns="http://www.w3.org/2000/svg"
 width="310.000000pt" height="310.000000pt" viewBox="0 0 310.000000 310.000000"
 preserveAspectRatio="xMidYMid meet">
<metadata>
Created by potrace 1.11, written by Peter Selinger 2001-2013
</metadata>
<g transform="translate(0.000000,310.000000) scale(0.100000,-0.100000)"
fill="#000000" stroke="none">
<path d="M330 1535 l0 -1075 273 0 274 0 1 792 c0 436 1 798 2 803 2 12 5 1
85 -315 2 -8 29 -114 61 -235 31 -121 57 -227 59 -235 2 -8 27 -105 55 -215
28 -110 53 -207 55 -215 2 -8 24 -95 49 -192 25 -97 46 -179 46 -182 0 -4 112
-6 249 -6 l249 0 13 53 c7 28 14 54 14 57 1 3 7 25 14 50 7 25 14 52 16 60 2
8 31 123 65 255 34 132 63 247 65 255 2 8 11 44 20 80 9 36 19 72 20 80 2 8
11 42 20 75 15 58 124 479 129 500 22 97 30 125 35 125 3 0 6 -357 6 -792 l0
-793 273 -3 272 -2 0 1075 0 1075 -438 0 -438 0 -24 -97 c-13 -54 -25 -102
-26 -108 -2 -5 -23 -89 -48 -185 -77 -299 -178 -694 -181 -710 -17 -78 -54
-192 -58 -180 -3 8 -14 51 -26 95 -84 330 -136 536 -161 630 -60 229 -140 543
-140 549 0 3 -198 6 -440 6 l-440 0 0 -1075z"/>
</g>
</svg>
